<svg viewBox="0 0 69 69" fill="none" xmlns="http://www.w3.org/2000/svg">
	<circle cx="34.5"  cy="34.5" r="34.5" fill="#F75555"/>
	<g clip-path="url(#clip0_1300_3275)">
	<path d="M37.8832 46.9578C36.1137 46.9455 34.5252 46.525 33.0005 45.8361C31.3368 45.0847 29.826 44.0884 28.415 42.938C26.4386 41.3268 24.7314 39.4714 23.3655 37.3114C22.3987 35.782 21.6567 34.1546 21.2388 32.3874C20.8961 30.9372 20.8942 29.5 21.4179 28.089C21.8023 27.0529 22.4325 26.2052 23.3936 25.6287C23.9919 25.2699 24.6521 25.1122 25.3378 25.0399C25.5842 25.014 25.8315 25.0121 26.0785 25.0017C26.4999 24.9834 26.8486 25.1404 27.1487 25.4212C27.6168 25.8593 27.8938 26.4199 28.1434 26.9961C28.3983 27.5846 28.5925 28.1954 28.789 28.8048C28.9473 29.2953 29.1567 29.7659 29.3528 30.2407C29.7496 31.2013 29.5787 32.0437 28.8917 32.8068C28.549 33.1874 28.205 33.5611 27.7549 33.8205C27.6465 33.8827 27.5476 33.9658 27.456 34.0514C27.21 34.2816 27.1834 34.4642 27.3597 34.7504C27.6471 35.2172 27.9779 35.6528 28.3266 36.0751C29.0768 36.9836 29.9514 37.7672 30.8125 38.5651C31.5304 39.2304 32.2399 39.9054 33.0413 40.473C33.1357 40.5399 33.2311 40.605 33.3281 40.6682C33.5021 40.7816 33.5669 40.7781 33.7144 40.6328C34.269 40.0857 34.8199 39.5348 35.3762 38.989C35.789 38.5838 36.2767 38.3567 36.8674 38.4018C37.1374 38.4224 37.3879 38.519 37.6375 38.6172C39.087 39.1893 40.5315 39.7746 41.9892 40.3245C42.5875 40.5501 42.8683 40.9727 42.9573 41.5662C43.0992 42.5103 42.879 43.3926 42.4823 44.2419C41.8648 45.5639 40.8773 46.4439 39.4414 46.7897C38.9006 46.9202 38.3501 46.9467 37.8835 46.9581L37.8832 46.9578Z" fill="white"/>
	</g>
	<path d="M36.546 25.546L42.91 31.91M36.546 31.91L42.91 25.546" stroke="white" stroke-width="2" stroke-linecap="round" stroke-linejoin="round"/>
	<defs>
	<clipPath id="clip0_1300_3275">
	<rect width="22" height="21.9577" fill="white" transform="translate(21 25)"/>
	</clipPath>
	</defs>
</svg>