<svg  viewBox="0 0 69 69" fill="none" xmlns="http://www.w3.org/2000/svg">
	<circle cx="34.5" ng-click="unmuteSelfGroupAudio();" cy="34.5" r="34.5" fill="#7B7B7B" fill-opacity="0.5"/>
	<g clip-path="url(#clip0_1306_3488)">
		<path d="M33.0738 46.7795C33.0538 46.2583 33.0511 45.1662 33.0749 44.6455C33.0868 44.3917 32.984 44.3311 32.7637 44.3035C31.5508 44.153 30.4164 43.7633 29.3573 43.155C29.295 43.1193 29.2366 43.0787 29.1527 43.0251C29.6474 42.5337 30.135 42.0553 30.6145 41.5687C30.7109 41.4707 30.7845 41.5097 30.8759 41.5546C32.0866 42.1527 33.3715 42.3481 34.7088 42.2625C36.5966 42.1413 38.1726 41.3609 39.4861 40.0214C40.9355 38.5428 41.6115 36.7578 41.6023 34.7007C41.5996 34.0615 41.5985 33.4223 41.6028 32.7831C41.6077 32.1364 42.0612 31.659 42.6625 31.658C43.2644 31.6569 43.7293 32.1326 43.7212 32.7799C43.7065 33.9484 43.7845 35.119 43.621 36.2854C43.3975 37.8819 42.7859 39.3135 41.8085 40.5859C40.764 41.9454 39.4721 43.0029 37.8771 43.6681C37.1172 43.9847 36.3298 44.2071 35.5104 44.2991C35.2814 44.3246 35.1911 44.3971 35.2013 44.6455C35.2235 45.1759 35.2192 46.2491 35.203 46.7795" fill="white"/>
		<path d="M29.1278 36.6502C28.8896 36.0434 28.8117 35.4064 28.8112 34.7575C28.8095 31.9854 28.8063 29.2133 28.8117 26.4407C28.8166 24.1876 29.8644 22.5407 31.8501 21.5383C34.0729 20.4169 36.8017 21.1021 38.3393 23.0721C39.0564 23.9906 39.4352 25.0227 39.4585 26.1874C39.4612 26.3227 39.4342 26.4233 39.3351 26.5224C35.9785 29.8676 32.6246 33.2161 29.2701 36.563C29.2333 36.5998 29.203 36.6507 29.1278 36.6491V36.6502Z" fill="white"/>
		<path d="M46.2735 24.1233C46.2751 24.6261 46.1571 24.9481 45.9173 25.2246C45.8584 25.2928 45.7977 25.3594 45.7339 25.4227C38.7121 32.4315 31.6899 39.4391 24.6698 46.449C24.2211 46.8971 23.7107 47.1141 23.0797 46.9388C22.066 46.6568 21.6655 45.419 22.3165 44.5915C22.3831 44.5065 22.4562 44.4259 22.5325 44.3501C29.5602 37.3354 36.5884 30.3207 43.6166 23.3066C44.1865 22.7378 44.8609 22.6057 45.4817 22.9434C46.0012 23.2259 46.2599 23.6719 46.2735 24.1233Z" fill="white"/>
		<path d="M32.374 39.8579C34.7332 37.5036 37.0766 35.165 39.4234 32.8237C39.4223 32.8237 39.4488 32.8318 39.4493 32.841C39.4667 33.766 39.5164 34.6925 39.4055 35.6142C39.2383 36.9981 38.5488 38.1038 37.488 38.9709C36.0067 40.1816 34.3213 40.4219 32.5039 39.912C32.4612 39.9001 32.4211 39.8779 32.374 39.8585V39.8579Z" fill="white"/>
		<path d="M26.6739 34.3707C26.6538 35.4412 26.7583 36.6519 27.2687 37.7977C27.5057 38.3302 27.4981 38.3335 27.0847 38.7464C26.7783 39.0517 26.4644 39.3493 26.17 39.6659C26.0152 39.8321 25.9427 39.8527 25.8139 39.6308C24.9658 38.1727 24.5583 36.6005 24.5534 34.92C24.5512 34.2089 24.548 33.4982 24.5523 32.7871C24.5566 32.1387 25.0075 31.6614 25.6071 31.6592C26.209 31.657 26.6663 32.1338 26.6728 32.7784C26.6777 33.2552 26.6739 33.7326 26.6739 34.3712V34.3707Z" fill="white"/>
	</g>
	<defs>
		<clipPath id="clip0_1306_3488">
			<rect width="24.2735" height="26" fill="white" transform="translate(22 21)"/>
		</clipPath>
	</defs>
</svg>