<svg  viewBox="0 0 69 69" fill="none" xmlns="http://www.w3.org/2000/svg">
	<circle cx="34.5" ng-click="muteSelfGroupAudio();" cy="34.5" r="34.5" fill="#7B7B7B" fill-opacity="0.5"/>
	<g clip-path="url(#clip0_1300_3274)">
		<path d="M39.4247 30.4514C39.4247 31.9269 39.4247 33.4024 39.4247 34.8773C39.4196 36.8158 37.9604 38.3779 35.7749 38.7829C33.3671 39.2293 30.8912 37.7897 30.4507 35.6852C30.3912 35.4072 30.3605 35.1252 30.359 34.8426C30.359 31.8997 30.359 28.9557 30.359 26.0105C30.359 24.231 31.5896 22.7323 33.4709 22.1976C36.132 21.4411 38.9574 22.9359 39.3725 25.3241C39.4724 25.8996 39.4202 26.4829 39.4253 27.059C39.4342 28.1896 39.4253 29.3213 39.4253 30.4514H39.4247Z" fill="white"/>
		<path d="M33.3879 46.8396C33.3771 46.226 33.3802 43.9564 33.3879 43.3429C33.3879 43.2049 33.3535 43.1387 33.1759 43.1094C29.4942 42.4953 26.6536 39.909 26.0921 36.6722C25.9947 36.1099 26.0048 35.5454 26.0036 34.9799C26.0036 34.4419 25.9991 33.9039 26.0036 33.3664C26.0112 32.616 26.6612 32.0421 27.5009 32.0371C28.3407 32.0322 29.0129 32.6187 29.018 33.3752C29.0231 34.1135 29.0231 34.8515 29.018 35.589C28.9945 38.1825 31.4086 40.452 34.3931 40.6369C37.4031 40.8239 39.9573 39.1856 40.6322 36.633C40.7265 36.2628 40.7709 35.8843 40.7646 35.5052C40.7646 34.7807 40.7557 34.0567 40.7646 33.3322C40.7699 33.0143 40.9087 32.709 41.155 32.4734C41.4012 32.2378 41.7381 32.088 42.1025 32.052C42.4669 32.016 42.834 32.0963 43.1351 32.2779C43.4361 32.4595 43.6506 32.73 43.7383 33.0386C43.7685 33.1528 43.7826 33.2697 43.7803 33.3868C43.7803 34.1798 43.7969 34.9738 43.7733 35.7662C43.7096 37.842 42.8024 39.6072 41.0994 41.0601C39.8659 42.1208 38.2927 42.8355 36.5844 43.1111C36.4342 43.1365 36.3934 43.19 36.3934 43.3158C36.3992 43.9432 36.4024 46.2265 36.3934 46.8539" fill="white"/>
	</g>
	<defs>
		<clipPath id="clip0_1300_3274">
			<rect width="17.7895" height="26" fill="white" transform="translate(26 22)"/>
		</clipPath>
	</defs>
</svg>