<svg viewBox="0 0 69 69" fill="none" xmlns="http://www.w3.org/2000/svg">
	<circle cx="34.5"  cy="34.5" r="34.5" fill="#7B7B7B" fill-opacity="0.5"/>
	<path fill-rule="evenodd" clip-rule="evenodd" d="M38.2047 25.3272C32.0645 25.3191 31.8266 25.3193 25.4185 25.3277C23.7637 25.3299 22.8718 26.1981 22.8675 27.8228C22.8527 32.093 22.8546 36.3631 22.867 40.6353C27.9794 35.5325 33.092 30.4298 38.2047 25.3272ZM25.7861 43.2308C31.9416 43.2466 32.3136 43.2461 38.7943 43.2273C40.2277 43.223 41.1131 42.2968 41.154 40.8676C41.1671 40.4232 41.1644 39.9777 41.1613 39.4663C41.1598 39.2235 41.1583 38.9658 41.1583 38.6863C41.2869 38.8006 41.3899 38.8901 41.4761 38.965C41.6217 39.0916 41.719 39.1761 41.8094 39.2666C42.0608 39.5165 42.3102 39.7681 42.5594 40.0197C43.0411 40.5057 43.5222 40.9913 44.0165 41.4629C44.6677 42.084 45.4156 42.2323 46.2924 41.9293C47.0574 41.666 47.0206 41.1152 46.9845 40.5741C46.9767 40.457 46.9689 40.3404 46.9693 40.2272C46.9819 36.826 46.9795 33.4248 46.9771 30.0236C46.9766 29.3437 46.9761 28.6639 46.9758 27.984C46.9736 26.8536 46.3053 26.2991 45.1942 26.5119C44.6548 26.615 44.1992 26.8794 43.8188 27.2898C43.2887 27.8595 42.7506 28.4222 42.2126 28.9847C41.9611 29.2476 41.7097 29.5106 41.4591 29.7742L41.457 29.772L41.154 29.6431C41.154 29.4447 41.1551 29.2461 41.1563 29.0475C41.1587 28.6618 41.161 28.2758 41.1546 27.8907C40.696 28.3484 40.2375 28.806 39.779 29.2637C35.1145 33.9193 30.45 38.5748 25.7861 43.2308Z" fill="white"/>
	<path d="M43.2855 24.2515C43.287 24.713 43.1786 25.0086 42.9585 25.2624C42.9044 25.325 42.8487 25.3861 42.7901 25.4443C36.3435 31.8774 29.8964 38.3096 23.4513 44.7437C23.0394 45.1551 22.5708 45.3543 21.9915 45.1933C21.0608 44.9345 20.6931 43.7984 21.2908 43.0388C21.352 42.9608 21.419 42.8868 21.4891 42.8173C27.9412 36.3786 34.3937 29.94 40.8463 23.5019C41.3695 22.9798 41.9886 22.8586 42.5585 23.1686C43.0355 23.4279 43.273 23.8372 43.2855 24.2515Z" fill="white"/>
</svg>