<svg viewBox="0 0 69 69" fill="none" xmlns="http://www.w3.org/2000/svg">
	<circle  cx="34.5"  cy="34.5" r="34.5" fill="#7B7B7B" fill-opacity="0.5"/>
	<g clip-path="url(#clip0_1300_3273)">
	<path d="M42.0334 29.7954C42.8805 28.9044 43.7368 28.0203 44.5747 27.12C44.9843 26.6779 45.475 26.3933 46.0559 26.2822C47.2524 26.0531 47.9722 26.6502 47.9745 27.8675C47.9768 32.2626 47.9838 36.6576 47.9676 41.0527C47.9653 41.7378 48.2407 42.5409 47.2385 42.8857C46.2943 43.212 45.4888 43.0523 44.7876 42.3835C43.9799 41.6128 43.2045 40.8074 42.4107 40.0182C42.2556 39.8631 42.082 39.7242 41.7094 39.3933C41.7094 40.3283 41.7256 41.0365 41.7048 41.7424C41.6608 43.2815 40.7073 44.279 39.1636 44.2836C31.9936 44.3044 31.7668 44.3044 24.5967 44.2859C22.9628 44.2813 22.0162 43.3092 22.0115 41.6868C21.9977 37.021 21.9953 32.3575 22.0115 27.694C22.0162 25.9443 22.9766 25.0093 24.7587 25.0069C31.813 24.9977 31.9241 24.9977 38.9784 25.0069C40.7351 25.0093 41.6747 25.9697 41.7048 27.7287C41.7164 28.3698 41.7048 29.0132 41.7048 29.6543C41.8136 29.7006 41.9224 29.7468 42.0311 29.7931L42.0334 29.7954Z" fill="white"/>
	</g>
	<defs>
	<clipPath id="clip0_1300_3273">
	<rect width="26" height="19.2998" fill="white" transform="translate(22 25)"/>
	</clipPath>
	</defs>
</svg>